<?xml version="1.0" encoding="UTF-8" standalone="no"?>
<!DOCTYPE svg PUBLIC "-//W3C//DTD SVG 1.1//EN" "http://www.w3.org/Graphics/SVG/1.1/DTD/svg11.dtd">
<svg width="22" height="22" viewBox="0 0 1024 1024" version="1.1" xmlns="http://www.w3.org/2000/svg" xmlns:xlink="http://www.w3.org/1999/xlink" xml:space="preserve" xmlns:serif="http://www.serif.com/" style="fill-rule:evenodd;clip-rule:evenodd;stroke-linejoin:round;stroke-miterlimit:2;">
    <g transform="matrix(1.31579,0,0,1.31579,73.165676,280.462166)">
        <g id="Background">
            <path fill="#ffffff" d="M333.956,171.533C328.369,200.178 317.097,371.318 272.293,347.908C234.537,328.181 232.098,166.74 212.118,142.867C202.791,131.724 189.299,211.212 174.096,236.253C172.531,238.83 162.487,257.559 146.569,259.867C109.644,265.222 95.1,184.571 76.453,188.209C57.932,191.822 42.318,227.901 14.698,213.121C-2.841,203.736 -2.069,178.14 22.477,179.885C44.308,181.437 49.274,152.9 77.506,150.585C119.606,147.131 131.738,238.963 151.151,200.322C170.192,162.421 180.959,64.22 219.331,79.902C258.275,95.819 260.972,261.164 278.642,276.321C290.412,286.417 303.798,150.973 311.927,102.556C318.128,65.618 334.129,-20.278 368.235,6.843C406.507,37.276 409.52,244.431 430.944,268.05C440.337,278.405 451.266,200.154 454.795,181.559C457.003,169.927 470.341,73.084 503.685,91.132C535.953,108.597 542.611,231.832 558.209,214.24C569.702,201.277 580.836,124.217 622.401,133.999C636.363,137.285 639.3,145.427 660.898,174.22C664.303,178.759 645.581,186.012 636.388,182.858C628.715,180.225 613.232,164.3 602.246,195.412C589.414,231.753 576.201,287.151 545.68,273.133C536.198,268.778 528.776,253.387 527.797,251.357C508.571,211.493 503.164,132.185 491.672,166.559C477.633,208.555 470.206,355.475 424.638,333.22C379.193,311.025 379.217,96.501 357.951,73.069C347.229,61.254 335.463,160.282 333.956,171.533Z"/>
        </g>
    </g>
</svg>
